<svg width="48" height="49" viewBox="0 0 48 49" fill="none" xmlns="http://www.w3.org/2000/svg">
<path d="M4.5 19.9991H9V31.9991H6C5.60218 31.9991 5.22064 32.1571 4.93934 32.4384C4.65804 32.7197 4.5 33.1012 4.5 33.4991C4.5 33.8969 4.65804 34.2784 4.93934 34.5597C5.22064 34.841 5.60218 34.9991 6 34.9991H42C42.3978 34.9991 42.7794 34.841 43.0607 34.5597C43.342 34.2784 43.5 33.8969 43.5 33.4991C43.5 33.1012 43.342 32.7197 43.0607 32.4384C42.7794 32.1571 42.3978 31.9991 42 31.9991H39V19.9991H43.5C43.8264 19.9987 44.1437 19.892 44.4039 19.695C44.6641 19.498 44.853 19.2215 44.9418 18.9074C45.0307 18.5934 45.0147 18.2589 44.8963 17.9548C44.7778 17.6507 44.5634 17.3935 44.2856 17.2222L24.7856 5.22219C24.5493 5.07691 24.2774 5 24 5C23.7226 5 23.4507 5.07691 23.2144 5.22219L3.71437 17.2222C3.43655 17.3935 3.22217 17.6507 3.10374 17.9548C2.98532 18.2589 2.96932 18.5934 3.05817 18.9074C3.14702 19.2215 3.33586 19.498 3.59607 19.695C3.85627 19.892 4.17363 19.9987 4.5 19.9991ZM12 19.9991H18V31.9991H12V19.9991ZM27 19.9991V31.9991H21V19.9991H27ZM36 31.9991H30V19.9991H36V31.9991ZM24 8.25969L38.2013 16.9991H9.79875L24 8.25969ZM46.5 39.4991C46.5 39.8969 46.342 40.2784 46.0607 40.5597C45.7794 40.841 45.3978 40.9991 45 40.9991H3C2.60218 40.9991 2.22064 40.841 1.93934 40.5597C1.65804 40.2784 1.5 39.8969 1.5 39.4991C1.5 39.1012 1.65804 38.7197 1.93934 38.4384C2.22064 38.1571 2.60218 37.9991 3 37.9991H45C45.3978 37.9991 45.7794 38.1571 46.0607 38.4384C46.342 38.7197 46.5 39.1012 46.5 39.4991Z" fill="white"/>
</svg>
