<svg width="49" height="49" viewBox="0 0 49 49" fill="none" xmlns="http://www.w3.org/2000/svg">
<path d="M32.3662 14.5C32.3662 12.6401 32.3662 11.7101 32.1618 10.9471C31.607 8.87653 29.9897 7.25925 27.9191 6.70445C27.1561 6.5 26.2262 6.5 24.3662 6.5C22.5063 6.5 21.5763 6.5 20.8133 6.70445C18.7427 7.25925 17.1255 8.87653 16.5707 10.9471C16.3662 11.7101 16.3662 12.6401 16.3662 14.5M10.7662 42.5H37.9662C40.2064 42.5 41.3265 42.5 42.1822 42.064C42.9348 41.6805 43.5467 41.0686 43.9302 40.316C44.3662 39.4603 44.3662 38.3402 44.3662 36.1V20.9C44.3662 18.6598 44.3662 17.5397 43.9302 16.684C43.5467 15.9314 42.9348 15.3195 42.1822 14.936C41.3265 14.5 40.2064 14.5 37.9662 14.5H10.7662C8.526 14.5 7.4059 14.5 6.55025 14.936C5.7976 15.3195 5.18568 15.9314 4.80218 16.684C4.36621 17.5397 4.36621 18.6598 4.36621 20.9V36.1C4.36621 38.3402 4.36621 39.4603 4.80218 40.316C5.18568 41.0686 5.7976 41.6805 6.55025 42.064C7.4059 42.5 8.526 42.5 10.7662 42.5Z" stroke="white" stroke-width="2.5" stroke-linecap="round" stroke-linejoin="round"/>
</svg>
