<svg width="49" height="49" viewBox="0 0 49 49" fill="none" xmlns="http://www.w3.org/2000/svg">
<path d="M39.4812 6.5H9.4812C8.68555 6.5 7.92249 6.81607 7.35988 7.37868C6.79727 7.94129 6.4812 8.70435 6.4812 9.5V39.5C6.4812 40.2956 6.79727 41.0587 7.35988 41.6213C7.92249 42.1839 8.68555 42.5 9.4812 42.5H39.4812C40.2769 42.5 41.0399 42.1839 41.6025 41.6213C42.1651 41.0587 42.4812 40.2956 42.4812 39.5V9.5C42.4812 8.70435 42.1651 7.94129 41.6025 7.37868C41.0399 6.81607 40.2769 6.5 39.4812 6.5ZM16.9812 30.5C17.2779 30.5 17.5679 30.588 17.8146 30.7528C18.0612 30.9176 18.2535 31.1519 18.367 31.426C18.4806 31.7001 18.5103 32.0017 18.4524 32.2926C18.3945 32.5836 18.2516 32.8509 18.0419 33.0607C17.8321 33.2704 17.5648 33.4133 17.2738 33.4712C16.9829 33.5291 16.6813 33.4994 16.4072 33.3858C16.1331 33.2723 15.8988 33.08 15.734 32.8334C15.5692 32.5867 15.4812 32.2967 15.4812 32C15.4812 31.6022 15.6392 31.2206 15.9205 30.9393C16.2018 30.658 16.5834 30.5 16.9812 30.5ZM9.4812 9.5H15.4812V27.7588C14.4804 28.1126 13.6369 28.8089 13.0998 29.7245C12.5626 30.6401 12.3665 31.7161 12.546 32.7623C12.7255 33.8086 13.2691 34.7577 14.0807 35.4419C14.8923 36.1261 15.9197 36.5014 16.9812 36.5014C18.0427 36.5014 19.0701 36.1261 19.8817 35.4419C20.6933 34.7577 21.2369 33.8086 21.4164 32.7623C21.5959 31.7161 21.3998 30.6401 20.8626 29.7245C20.3255 28.8089 19.482 28.1126 18.4812 27.7588V22.1206L27.4812 31.1206V39.5H9.4812V9.5ZM39.4812 39.5H30.4812V30.5C30.4814 30.303 30.4427 30.1078 30.3674 29.9257C30.2921 29.7436 30.1817 29.5782 30.0425 29.4387L18.4812 17.8794V9.5H24.4812V14C24.481 14.197 24.5197 14.3922 24.595 14.5743C24.6703 14.7564 24.7807 14.9218 24.92 15.0613L27.92 18.0613C27.6294 18.6662 27.4794 19.3289 27.4812 20C27.4812 20.89 27.7451 21.76 28.2396 22.5001C28.7341 23.2401 29.4369 23.8169 30.2591 24.1575C31.0814 24.4981 31.9862 24.5872 32.8591 24.4135C33.732 24.2399 34.5338 23.8113 35.1632 23.182C35.7925 22.5526 36.2211 21.7508 36.3947 20.8779C36.5684 20.005 36.4793 19.1002 36.1387 18.2779C35.7981 17.4557 35.2213 16.7529 34.4813 16.2584C33.7412 15.7639 32.8712 15.5 31.9812 15.5C31.31 15.4988 30.6472 15.6495 30.0425 15.9406L27.4812 13.3794V9.5H39.4812V39.5ZM31.9812 18.5C32.2779 18.5 32.5679 18.588 32.8146 18.7528C33.0612 18.9176 33.2535 19.1519 33.367 19.426C33.4806 19.7001 33.5103 20.0017 33.4524 20.2926C33.3945 20.5836 33.2516 20.8509 33.0419 21.0607C32.8321 21.2704 32.5648 21.4133 32.2738 21.4712C31.9829 21.5291 31.6813 21.4994 31.4072 21.3858C31.1331 21.2723 30.8988 21.08 30.734 20.8334C30.5692 20.5867 30.4812 20.2967 30.4812 20C30.4812 19.6022 30.6392 19.2206 30.9205 18.9393C31.2018 18.658 31.5834 18.5 31.9812 18.5Z" fill="white"/>
</svg>
