<svg width="49" height="49" viewBox="0 0 49 49" fill="none" xmlns="http://www.w3.org/2000/svg">
<path d="M24.2774 15.4991C22.4974 15.4991 20.7573 16.0269 19.2773 17.0159C17.7973 18.0048 16.6437 19.4104 15.9625 21.055C15.2813 22.6995 15.1031 24.5091 15.4504 26.2549C15.7976 28.0007 16.6548 29.6044 17.9135 30.8631C19.1721 32.1217 20.7758 32.9789 22.5216 33.3262C24.2674 33.6734 26.077 33.4952 27.7216 32.814C29.3661 32.1328 30.7717 30.9793 31.7607 29.4992C32.7496 28.0192 33.2774 26.2791 33.2774 24.4991C33.2749 22.1129 32.3259 19.8252 30.6386 18.1379C28.9514 16.4506 26.6636 15.5016 24.2774 15.4991ZM24.2774 30.4991C23.0907 30.4991 21.9307 30.1472 20.944 29.4879C19.9573 28.8286 19.1883 27.8916 18.7342 26.7952C18.28 25.6989 18.1612 24.4925 18.3927 23.3286C18.6242 22.1647 19.1957 21.0956 20.0348 20.2565C20.8739 19.4174 21.943 18.8459 23.1069 18.6144C24.2708 18.3829 25.4772 18.5017 26.5735 18.9558C27.6699 19.41 28.607 20.179 29.2662 21.1657C29.9255 22.1524 30.2774 23.3124 30.2774 24.4991C30.2774 26.0904 29.6453 27.6165 28.5201 28.7417C27.3948 29.867 25.8687 30.4991 24.2774 30.4991ZM40.7774 24.9041C40.7849 24.6341 40.7849 24.3641 40.7774 24.0941L43.5749 20.5991C43.7216 20.4156 43.8231 20.2002 43.8713 19.9703C43.9195 19.7404 43.9131 19.5023 43.8524 19.2754C43.3938 17.5515 42.7078 15.8963 41.8124 14.3535C41.6952 14.1516 41.5324 13.9798 41.3371 13.8519C41.1418 13.724 40.9194 13.6434 40.6874 13.6166L36.2399 13.1216C36.0549 12.9266 35.8674 12.7391 35.6774 12.5591L35.1524 8.10036C35.1254 7.86826 35.0446 7.64567 34.9163 7.45035C34.788 7.25503 34.6159 7.09238 34.4137 6.97536C32.8702 6.08163 31.2152 5.3963 29.4918 4.93723C29.2647 4.87685 29.0266 4.87068 28.7966 4.9192C28.5667 4.96773 28.3514 5.0696 28.1681 5.21661L24.6824 7.99911C24.4124 7.99911 24.1424 7.99911 23.8724 7.99911L20.3774 5.20723C20.1939 5.06055 19.9785 4.95902 19.7486 4.91082C19.5187 4.86262 19.2806 4.8691 19.0537 4.92973C17.3301 5.38916 15.675 6.07514 14.1318 6.96973C13.9299 7.08697 13.7581 7.24972 13.6302 7.44503C13.5023 7.64033 13.4217 7.8628 13.3949 8.09473L12.8999 12.5497C12.7049 12.736 12.5174 12.9235 12.3374 13.1122L7.87868 13.6241C7.64658 13.6511 7.42399 13.732 7.22867 13.8602C7.03335 13.9885 6.8707 14.1606 6.75368 14.3629C5.85995 15.9063 5.17462 17.5613 4.71555 19.2847C4.65517 19.5118 4.649 19.75 4.69752 19.9799C4.74605 20.2098 4.84792 20.4251 4.99493 20.6085L7.77743 24.0941C7.77743 24.3641 7.77743 24.6341 7.77743 24.9041L4.98555 28.3991C4.83887 28.5826 4.73734 28.798 4.68914 29.0279C4.64094 29.2579 4.64742 29.4959 4.70805 29.7229C5.16666 31.4467 5.85268 33.1019 6.74805 34.6447C6.86529 34.8466 7.02804 35.0184 7.22335 35.1463C7.41865 35.2742 7.64112 35.3548 7.87305 35.3816L12.3206 35.8766C12.5068 36.0716 12.6943 36.2591 12.8831 36.4391L13.4024 40.8979C13.4294 41.13 13.5103 41.3525 13.6385 41.5479C13.7668 41.7432 13.9389 41.9058 14.1412 42.0229C15.6846 42.9166 17.3396 43.6019 19.0631 44.061C19.2902 44.1214 19.5283 44.1275 19.7582 44.079C19.9881 44.0305 20.2035 43.9286 20.3868 43.7816L23.8724 40.9991C24.1424 41.0066 24.4124 41.0066 24.6824 40.9991L28.1774 43.7966C28.3609 43.9433 28.5763 44.0448 28.8062 44.093C29.0362 44.1412 29.2742 44.1347 29.5012 44.0741C31.225 43.6155 32.8802 42.9295 34.4231 42.0341C34.625 41.9169 34.7967 41.7541 34.9246 41.5588C35.0526 41.3635 35.1331 41.141 35.1599 40.9091L35.6549 36.4616C35.8499 36.2766 36.0374 36.0891 36.2174 35.8991L40.6762 35.3741C40.9083 35.3471 41.1309 35.2662 41.3262 35.138C41.5215 35.0097 41.6842 34.8376 41.8012 34.6354C42.6949 33.0919 43.3802 31.4369 43.8393 29.7135C43.8997 29.4864 43.9059 29.2483 43.8573 29.0183C43.8088 28.7884 43.7069 28.5731 43.5599 28.3897L40.7774 24.9041ZM37.7587 23.6854C37.7906 24.2274 37.7906 24.7708 37.7587 25.3129C37.7363 25.684 37.8526 26.0501 38.0849 26.3404L40.7456 29.6647C40.4403 30.635 40.0493 31.5762 39.5774 32.4772L35.3399 32.9572C34.9709 32.9982 34.6302 33.1746 34.3837 33.4522C34.0228 33.8582 33.6383 34.2426 33.2324 34.6035C32.9548 34.85 32.7784 35.1907 32.7374 35.5597L32.2668 39.7935C31.3659 40.2656 30.4246 40.6565 29.4543 40.9616L26.1281 38.301C25.8619 38.0883 25.5312 37.9726 25.1906 37.9729H25.1006C24.5585 38.0047 24.0151 38.0047 23.4731 37.9729C23.102 37.9505 22.7358 38.0668 22.4456 38.2991L19.1118 40.9616C18.1416 40.6563 17.2004 40.2654 16.2993 39.7935L15.8193 35.5616C15.7783 35.1926 15.602 34.8519 15.3243 34.6054C14.9184 34.2444 14.534 33.86 14.1731 33.4541C13.9266 33.1764 13.5858 33.0001 13.2168 32.9591L8.98305 32.4866C8.51091 31.5857 8.11999 30.6444 7.81493 29.6741L10.4756 26.3479C10.7079 26.0576 10.8241 25.6915 10.8018 25.3204C10.7699 24.7783 10.7699 24.2349 10.8018 23.6929C10.8241 23.3218 10.7079 22.9556 10.4756 22.6654L7.81493 19.3335C8.12023 18.3632 8.51114 17.422 8.98305 16.521L13.2149 16.041C13.584 16 13.9247 15.8236 14.1712 15.546C14.5321 15.1401 14.9165 14.7557 15.3224 14.3947C15.6012 14.1481 15.7783 13.8066 15.8193 13.4366L16.2899 9.20473C17.1909 8.73259 18.1321 8.34167 19.1024 8.03661L22.4287 10.6972C22.7189 10.9296 23.0851 11.0458 23.4562 11.0235C23.9982 10.9916 24.5416 10.9916 25.0837 11.0235C25.4548 11.0458 25.8209 10.9296 26.1112 10.6972L29.4431 8.03661C30.4133 8.34191 31.3545 8.73282 32.2556 9.20473L32.7356 13.4366C32.7765 13.8056 32.9529 14.1464 33.2306 14.3929C33.6365 14.7538 34.0209 15.1382 34.3818 15.5441C34.6283 15.8218 34.969 15.9981 35.3381 16.0391L39.5718 16.5097C40.0439 17.4107 40.4349 18.3519 40.7399 19.3222L38.0793 22.6485C37.8447 22.9412 37.7283 23.3111 37.7531 23.6854H37.7587Z" fill="white"/>
</svg>
