<svg width="49" height="49" viewBox="0 0 49 49" fill="none" xmlns="http://www.w3.org/2000/svg">
<path d="M40.4961 22.6572C40.4393 22.4168 40.324 22.1941 40.1604 22.009C39.9969 21.8238 39.7902 21.6819 39.5586 21.5959L28.7567 17.5441L31.5055 3.79467C31.5677 3.47521 31.5244 3.14418 31.382 2.85151C31.2395 2.55885 31.0058 2.32045 30.716 2.17228C30.4263 2.0241 30.0961 1.9742 29.7755 2.03011C29.4549 2.08601 29.1611 2.24468 28.9386 2.48217L7.93859 24.9822C7.76803 25.1619 7.64464 25.3811 7.57946 25.6201C7.51427 25.8591 7.50931 26.1106 7.56502 26.352C7.62074 26.5935 7.73539 26.8173 7.89873 27.0036C8.06207 27.1899 8.26902 27.3329 8.50109 27.4197L19.3067 31.4715L16.5655 45.2059C16.5032 45.5254 16.5466 45.8564 16.689 46.1491C16.8314 46.4417 17.0651 46.6801 17.3549 46.8283C17.6447 46.9765 17.9748 47.0264 18.2954 46.9705C18.616 46.9146 18.9098 46.7559 19.1323 46.5184L40.1323 24.0184C40.2998 23.8387 40.4206 23.6205 40.484 23.3832C40.5474 23.1458 40.5516 22.8965 40.4961 22.6572ZM20.5423 40.6253L22.5055 30.804C22.5757 30.4557 22.52 30.0938 22.3484 29.7827C22.1767 29.4716 21.9001 29.2315 21.568 29.1053L11.6605 25.3834L27.5267 8.38467L25.5655 18.2059C25.4952 18.5542 25.5509 18.9162 25.7226 19.2273C25.8943 19.5384 26.1708 19.7784 26.503 19.9047L36.403 23.6172L20.5423 40.6253Z" fill="white"/>
</svg>
